<svg width="50" height="60" viewBox="0 0 50 60" fill="none" xmlns="http://www.w3.org/2000/svg">
<rect x="40" y="30" width="5" height="5" fill="#010100"/>
<rect x="45" y="30" width="5" height="5" fill="#010100"/>
<rect x="35" y="35" width="5" height="5" fill="#010100"/>
<rect x="40" y="35" width="5" height="5" fill="#010100"/>
<rect x="30" y="40" width="5" height="5" fill="#010100"/>
<rect x="35" y="40" width="5" height="5" fill="#010100"/>
<rect x="40" y="10" width="5" height="5" fill="#010100"/>
<rect x="40" y="15" width="5" height="5" fill="#010100"/>
<rect x="45" y="15" width="5" height="5" fill="#010100"/>
<rect x="40" y="20" width="5" height="5" fill="#010100"/>
<rect x="45" y="20" width="5" height="5" fill="#010100"/>
<rect x="40" y="25" width="5" height="5" fill="#010100"/>
<rect x="45" y="25" width="5" height="5" fill="#010100"/>
<rect x="35" y="30" width="5" height="5" fill="#010100"/>
<rect x="30" y="35" width="5" height="5" fill="#010100"/>
<rect x="25" y="40" width="5" height="5" fill="#E2A741"/>
<rect x="25" y="45" width="5" height="5" fill="#D68C37"/>
<rect x="35" y="10" width="5" height="5" fill="#010100"/>
<rect x="35" width="5" height="5" fill="#010100"/>
<rect x="35" y="15" width="5" height="5" fill="#E2A741"/>
<rect x="35" y="20" width="5" height="5" fill="#E2A741"/>
<rect x="35" y="25" width="5" height="5" fill="#E2A741"/>
<rect x="30" y="30" width="5" height="5" fill="#E2A741"/>
<rect x="25" y="35" width="5" height="5" fill="#E2A741"/>
<rect x="20" y="40" width="5" height="5" fill="#E2A741"/>
<rect x="20" y="45" width="5" height="5" fill="#D68C37"/>
<rect x="30" y="10" width="5" height="5" fill="#E2A741"/>
<rect x="30" width="5" height="5" fill="#010100"/>
<rect x="30" y="15" width="5" height="5" fill="#E2A741"/>
<rect x="30" y="20" width="5" height="5" fill="#E2A741"/>
<rect x="30" y="25" width="5" height="5" fill="#E2A741"/>
<rect x="25" y="30" width="5" height="5" fill="#E2A741"/>
<rect x="20" y="35" width="5" height="5" fill="#E2A741"/>
<rect x="15" y="40" width="5" height="5" fill="#D68C37"/>
<rect x="15" y="45" width="5" height="5" fill="#D68C37"/>
<rect x="30" y="45" width="5" height="5" fill="#010100"/>
<rect x="35" y="45" width="5" height="5" fill="#010100"/>
<rect x="30" y="50" width="5" height="5" fill="#010100"/>
<rect x="35" y="50" width="5" height="5" fill="#010100"/>
<rect x="30" y="55" width="5" height="5" fill="#010100"/>
<rect x="25" y="50" width="5" height="5" fill="#010100"/>
<rect x="25" y="55" width="5" height="5" fill="#010100"/>
<rect x="20" y="50" width="5" height="5" fill="#010100"/>
<rect x="20" y="55" width="5" height="5" fill="#010100"/>
<rect x="15" y="50" width="5" height="5" fill="#010100"/>
<rect x="15" y="55" width="5" height="5" fill="#010100"/>
<rect x="10" y="50" width="5" height="5" fill="#010100"/>
<rect x="10" y="5" width="5" height="5" fill="#E2A741"/>
<rect x="15" y="5" width="5" height="5" fill="#010100"/>
<rect x="20" y="5" width="5" height="5" fill="#010100"/>
<rect x="20" y="10" width="5" height="5" fill="#E2A741"/>
<rect x="25" y="5" width="5" height="5" fill="#010100"/>
<rect x="10" y="10" width="5" height="5" fill="#E2A741"/>
<rect x="10" width="5" height="5" fill="#010100"/>
<rect x="10" y="15" width="5" height="5" fill="#E2A741"/>
<rect x="10" y="20" width="5" height="5" fill="#E2A741"/>
<rect x="10" y="25" width="5" height="5" fill="#E2A741"/>
<rect x="10" y="30" width="5" height="5" fill="#D68C37"/>
<rect x="10" y="35" width="5" height="5" fill="#010100"/>
<rect x="15" y="10" width="5" height="5" fill="#E2A741"/>
<rect x="15" width="5" height="5" fill="#010100"/>
<rect x="15" y="15" width="5" height="5" fill="#E2A741"/>
<rect x="15" y="20" width="5" height="5" fill="#E2A741"/>
<rect x="15" y="25" width="5" height="5" fill="#E2A741"/>
<rect x="15" y="30" width="5" height="5" fill="#E2A741"/>
<rect x="35" y="5" width="5" height="5" fill="#010100"/>
<rect x="5" y="5" width="5" height="5" fill="#010100"/>
<rect x="5" y="10" width="5" height="5" fill="#010100"/>
<rect x="5" width="5" height="5" fill="#010100"/>
<rect x="5" y="15" width="5" height="5" fill="#E2A741"/>
<rect x="5" y="20" width="5" height="5" fill="#E2A741"/>
<rect x="5" y="25" width="5" height="5" fill="#D68C37"/>
<rect x="5" y="30" width="5" height="5" fill="#010100"/>
<rect x="5" y="35" width="5" height="5" fill="#D68C37"/>
<rect x="30" y="5" width="5" height="5" fill="#E2A741"/>
<rect x="25" y="10" width="5" height="5" fill="#E2A741"/>
<rect x="25" width="5" height="5" fill="#010100"/>
<rect x="25" y="15" width="5" height="5" fill="#E2A741"/>
<rect x="25" y="20" width="5" height="5" fill="#E2A741"/>
<rect x="20" y="20" width="5" height="5" fill="#E2A741"/>
<rect x="25" y="25" width="5" height="5" fill="#E2A741"/>
<rect x="20" y="25" width="5" height="5" fill="#E2A741"/>
<rect x="20" y="30" width="5" height="5" fill="#E2A741"/>
<rect x="15" y="35" width="5" height="5" fill="#E2A741"/>
<rect x="10" y="40" width="5" height="5" fill="#D68C37"/>
<rect x="20" y="15" width="5" height="5" fill="#E2A741"/>
<rect y="10" width="5" height="5" fill="#010100"/>
<rect y="15" width="5" height="5" fill="#010100"/>
<rect y="20" width="5" height="5" fill="#010100"/>
<rect y="25" width="5" height="5" fill="#010100"/>
<rect y="30" width="5" height="5" fill="#010100"/>
<rect y="35" width="5" height="5" fill="#010100"/>
<rect y="40" width="5" height="5" fill="#010100"/>
<rect x="5" y="40" width="5" height="5" fill="#010100"/>
<rect x="5" y="45" width="5" height="5" fill="#010100"/>
<rect x="10" y="45" width="5" height="5" fill="#010100"/>
</svg>
